<svg width="25" height="25" viewBox="0 0 25 25" fill="none" xmlns="http://www.w3.org/2000/svg">
<g id="logos:facebook">
<g clip-path="url(#clip0_27_7814)">
<path id="Vector" d="M24.5361 12.6875C24.5361 6.27146 19.3348 1.07019 12.9188 1.07019C6.50279 1.07019 1.30151 6.27137 1.30151 12.6875C1.30151 18.4859 5.54981 23.2921 11.1036 24.1636V16.0456H8.15389V12.6875H11.1036V10.128C11.1036 7.21645 12.838 5.60819 15.4916 5.60819C16.7627 5.60819 18.0921 5.83509 18.0921 5.83509V8.69403H16.6272C15.184 8.69403 14.734 9.58955 14.734 10.5083V12.6875H17.956L17.4409 16.0456H14.734V24.1636C20.2878 23.2921 24.5361 18.486 24.5361 12.6875Z" fill="#1877F2"/>
<path id="Vector_2" d="M17.4408 16.0456L17.9559 12.6875H14.7339V10.5083C14.7339 9.58946 15.184 8.69402 16.6272 8.69402H18.092V5.83508C18.092 5.83508 16.7626 5.60818 15.4915 5.60818C12.8379 5.60818 11.1035 7.21645 11.1035 10.128V12.6875H8.15381V16.0456H11.1035V24.1636C11.704 24.2577 12.3109 24.3049 12.9187 24.3047C13.5265 24.3049 14.1334 24.2577 14.7339 24.1636V16.0456H17.4408Z" fill="white"/>
</g>
</g>
<defs>
<clipPath id="clip0_27_7814">
<path d="M0.245361 7.94629C0.245361 4.08029 3.37937 0.946289 7.24536 0.946289H24.8881V24.1808H0.245361V7.94629Z" fill="white"/>
</clipPath>
</defs>
</svg>
