<svg width="22" height="19" viewBox="0 0 22 19" fill="none" xmlns="http://www.w3.org/2000/svg">
<path d="M19.7188 5.08706C19.732 5.27786 19.732 5.4685 19.732 5.66099C19.732 11.5253 15.2675 18.2888 7.10425 18.2888V18.2854C4.69261 18.2888 2.33096 17.598 0.30127 16.2956C0.651947 16.3378 1.00431 16.3589 1.35753 16.3598C3.35632 16.3614 5.29763 15.691 6.86951 14.4563C5.94337 14.4388 5.04586 14.1324 4.30245 13.5798C3.55904 13.0271 3.0069 12.256 2.72323 11.3742C3.38859 11.5027 4.07405 11.4762 4.72708 11.2977C2.65647 10.8794 1.16689 9.06028 1.16689 6.9476V6.89132C1.78414 7.23518 2.47497 7.4257 3.18122 7.44683C1.23078 6.14349 0.629977 3.54915 1.80758 1.52097C2.92179 2.89202 4.31194 4.01335 5.88775 4.81215C7.46355 5.61094 9.18977 6.06932 10.9543 6.15752C10.7784 5.40018 10.8044 4.60995 11.0298 3.86583C11.2551 3.12171 11.6719 2.4498 12.2383 1.91727C14.0259 0.236895 16.8372 0.323085 18.5174 2.10977C19.5113 1.91351 20.4645 1.5491 21.3358 1.03221C21.0045 2.05986 20.3112 2.93219 19.3849 3.48696C20.2647 3.38323 21.1238 3.14765 21.9334 2.78814C21.3378 3.68006 20.5879 4.45857 19.7188 5.08706Z" fill="#1D9BF0"/>
</svg>
