<svg width="21" height="15" viewBox="0 0 21 15" fill="none" xmlns="http://www.w3.org/2000/svg">
<g clip-path="url(#clip0_27_7822)">
<path d="M20.3125 2.45482C20.1942 2.02394 19.9636 1.63112 19.6434 1.3155C19.3233 0.999868 18.9249 0.772442 18.4879 0.655865C16.888 0.225708 10.4495 0.225708 10.4495 0.225708C10.4495 0.225708 4.01081 0.238762 2.41116 0.668919C1.97418 0.785514 1.5758 1.01295 1.2557 1.32858C0.935599 1.6442 0.704938 2.037 0.586689 2.46787C0.10277 5.27073 -0.0849724 9.54134 0.599928 12.2319C0.718177 12.6628 0.948838 13.0556 1.26894 13.3712C1.58904 13.6868 1.98742 13.9143 2.4244 14.0309C4.02418 14.461 10.4628 14.461 10.4628 14.461C10.4628 14.461 16.9014 14.461 18.5011 14.0309C18.9381 13.9143 19.3365 13.6868 19.6566 13.3712C19.9767 13.0556 20.2074 12.6628 20.3256 12.2319C20.8359 9.42522 20.9932 5.15722 20.3124 2.45494L20.3125 2.45482Z" fill="#FF0000"/>
<path d="M8.3999 10.3938L13.7412 7.34345L8.3999 4.29294V10.3938Z" fill="white"/>
</g>
<defs>
<clipPath id="clip0_27_7822">
<rect width="20.831" height="14.4214" fill="white" transform="translate(0.151123 0.225708)"/>
</clipPath>
</defs>
</svg>
